<svg width="600" height="600" viewBox="0 0 600 600" fill="none" xmlns="http://www.w3.org/2000/svg">
<path d="M508.333 0C558.959 0 600 41.0406 600 91.6667V508.333C600 558.959 558.959 600 508.333 600H91.6667C41.0406 600 0 558.959 0 508.333V91.6667C0 41.0406 41.0406 0 91.6667 0H508.333ZM508.333 50H91.6667C68.6548 50 50 68.6548 50 91.6667V508.333C50 531.345 68.6548 550 91.6667 550H508.333C531.345 550 550 531.345 550 508.333V91.6667C550 68.6548 531.345 50 508.333 50ZM233.333 381.311L448.989 165.656C458.752 155.893 474.581 155.893 484.344 165.656C493.22 174.531 494.027 188.42 486.765 198.207L484.344 201.011L251.011 434.344C242.135 443.22 228.247 444.027 218.46 436.765L215.656 434.344L115.656 334.344C105.893 324.581 105.893 308.752 115.656 298.989C124.531 290.113 138.42 289.307 148.207 296.568L151.011 298.989L233.333 381.311Z" fill="#212121"/>
</svg>
